<svg xmlns="http://www.w3.org/2000/svg" viewBox="0 0 160 160" role="img" aria-label="恶霸头像">
  <defs>
    <radialGradient id="bgGlow" cx="50%" cy="45%" r="62%">
      <stop offset="0" stop-color="#FDF7E7"/>
      <stop offset=".55" stop-color="#BEEFD5"/>
      <stop offset="1" stop-color="#8EDBC3"/>
    </radialGradient>
    <radialGradient id="cheek" cx="50%" cy="50%" r="50%">
      <stop offset="0" stop-color="#F6A6A6" stop-opacity=".82"/>
      <stop offset="1" stop-color="#F6A6A6" stop-opacity="0"/>
    </radialGradient>
    <filter id="softShadow" x="-20%" y="-20%" width="140%" height="140%">
      <feDropShadow dx="0" dy="2" stdDeviation="2.5" flood-color="#7A4935" flood-opacity=".22"/>
    </filter>
  </defs>

  <rect width="160" height="160" rx="36" fill="#DDF6DD"/>
  <path d="M12 24h22m-11-11v22M123 26h20m-10-10v20M17 132h22m-11-11v22" stroke="#F8E7C8" stroke-width="6" stroke-linecap="round" opacity=".85"/>
  <circle cx="80" cy="80" r="71" fill="url(#bgGlow)" stroke="#FFFDF1" stroke-width="5"/>
  <circle cx="80" cy="80" r="64" fill="none" stroke="#FFFFFF" stroke-width="2" opacity=".8"/>

  <g fill="#FFFFFF" opacity=".92">
    <circle cx="45" cy="24" r="1.7"/>
    <circle cx="61" cy="18" r="1.5"/>
    <circle cx="80" cy="18" r="1.8"/>
    <circle cx="98" cy="23" r="1.6"/>
    <circle cx="116" cy="35" r="1.5"/>
    <circle cx="134" cy="65" r="1.6"/>
    <circle cx="136" cy="91" r="1.5"/>
    <circle cx="26" cy="69" r="1.7"/>
    <circle cx="26" cy="94" r="1.6"/>
    <circle cx="36" cy="116" r="1.5"/>
  </g>
  <path d="m27 72 3.5 7.1 7.9 1.1-5.7 5.5 1.4 7.8-7.1-3.7-7 3.7 1.3-7.8-5.7-5.5 7.9-1.1Z" fill="#FFF7D6" stroke="#8B5B49" stroke-width="2" stroke-linejoin="round"/>
  <path d="m125 70 3.5 7.1 7.9 1.1-5.7 5.5 1.4 7.8-7.1-3.7-7 3.7 1.3-7.8-5.7-5.5 7.9-1.1Z" fill="#FFF7D6" stroke="#8B5B49" stroke-width="2" stroke-linejoin="round"/>
  <path d="m101 35 2.4 4.9 5.4.8-3.9 3.8.9 5.4-4.8-2.5-4.9 2.5 1-5.4-3.9-3.8 5.4-.8Z" fill="#FFF7D6" stroke="#8B5B49" stroke-width="2" stroke-linejoin="round"/>

  <g filter="url(#softShadow)">
    <path d="M48 45C39 34 22 38 19 55c-2 12 7 27 18 30 12 3 16-9 16-20 0-7-1-14-5-20Z" fill="#D99B67" stroke="#6B3327" stroke-width="4" stroke-linejoin="round"/>
    <path d="M112 45c9-11 26-7 29 10 2 12-7 27-18 30-12 3-16-9-16-20 0-7 1-14 5-20Z" fill="#D99B67" stroke="#6B3327" stroke-width="4" stroke-linejoin="round"/>
    <path d="M34 61c10-28 25-26 42-19 5-5 11-5 17 0 19-7 34-5 43 19 6 18-3 48-24 60-19 12-45 12-64 0C27 109 20 79 34 61Z" fill="#FFF3D8" stroke="#6B3327" stroke-width="4" stroke-linejoin="round"/>
    <path d="M34 61c8-15 19-22 34-18 4 10 4 21 1 31-9 0-20 3-31 8-4-7-6-14-4-21Z" fill="#D9A06C" opacity=".72"/>
    <path d="M104 52c12-11 28-4 32 11 2 8-1 16-8 21-7 5-15 4-20-2-5-9-6-19-4-30Z" fill="#E2AA75" opacity=".7"/>
    <path d="M72 36c-2-8 3-13 8-6 2 3 3 7 4 10 3-7 12-9 12-2 0 5-4 9-9 11" fill="#FFF3D8" stroke="#6B3327" stroke-width="4" stroke-linecap="round" stroke-linejoin="round"/>

    <ellipse cx="59" cy="73" rx="12" ry="14" fill="#4A241E" transform="rotate(8 59 73)"/>
    <ellipse cx="101" cy="73" rx="12" ry="14" fill="#4A241E" transform="rotate(-8 101 73)"/>
    <circle cx="57" cy="71" r="5" fill="#FFFFFF"/>
    <circle cx="99" cy="71" r="5" fill="#FFFFFF"/>
    <circle cx="63" cy="68" r="3" fill="#FFFFFF" opacity=".88"/>
    <circle cx="105" cy="68" r="3" fill="#FFFFFF" opacity=".88"/>
    <ellipse cx="60" cy="80" rx="5" ry="3" fill="#B47B52" opacity=".82"/>
    <ellipse cx="100" cy="80" rx="5" ry="3" fill="#B47B52" opacity=".82"/>

    <path d="M73 53c2 3 3 7 2 12M87 53c-3 3-4 7-4 12" stroke="#B78369" stroke-width="3" stroke-linecap="round" opacity=".8"/>
    <path d="M48 55c4-6 13-9 20-6M112 55c-4-6-13-9-20-6" stroke="#6B3327" stroke-width="4" stroke-linecap="round" opacity=".35"/>

    <path d="M46 92c8-20 20-29 34-29s26 9 34 29c-4 17-17 27-34 27S50 109 46 92Z" fill="#FFF7E8" stroke="#8A4A3B" stroke-width="3" stroke-linejoin="round"/>
    <ellipse cx="80" cy="79" rx="13" ry="9" fill="#3A2422" stroke="#6B3327" stroke-width="3"/>
    <path d="M72 79c2-4 6-4 8 0m0 0c2-4 6-4 8 0" stroke="#1E1414" stroke-width="4" stroke-linecap="round"/>
    <path d="M80 86v13" stroke="#5B2D28" stroke-width="4" stroke-linecap="round"/>
    <path d="M80 99c-12 11-25 4-28-4M80 99c12 11 25 4 28-4" fill="none" stroke="#5B2D28" stroke-width="4" stroke-linecap="round"/>
    <g fill="#7B4B3D" opacity=".8">
      <circle cx="62" cy="91" r="1.5"/>
      <circle cx="69" cy="96" r="1.3"/>
      <circle cx="55" cy="98" r="1.3"/>
      <circle cx="98" cy="91" r="1.5"/>
      <circle cx="91" cy="96" r="1.3"/>
      <circle cx="105" cy="98" r="1.3"/>
    </g>
    <ellipse cx="42" cy="87" rx="12" ry="8" fill="url(#cheek)"/>
    <ellipse cx="118" cy="87" rx="12" ry="8" fill="url(#cheek)"/>
    <path d="M37 85c-2 3-3 5-3 8M43 85c-2 3-3 5-3 8M117 85c2 3 3 5 3 8M123 85c2 3 3 5 3 8" stroke="#EA7B79" stroke-width="3" stroke-linecap="round" opacity=".75"/>
  </g>

  <g>
    <path d="M31 111c29 21 69 21 98 0l-5 17c-27 14-61 14-88 0Z" fill="#91D6E6" stroke="#6B3327" stroke-width="4" stroke-linejoin="round"/>
    <circle cx="42" cy="117" r="5" fill="#BDF1C4" stroke="#6B3327" stroke-width="2"/>
    <circle cx="59" cy="126" r="6" fill="#F8B8C5" stroke="#6B3327" stroke-width="2"/>
    <circle cx="79" cy="122" r="5" fill="#FFE47D"/>
    <circle cx="101" cy="126" r="6" fill="#F8B8C5" stroke="#6B3327" stroke-width="2"/>
    <circle cx="118" cy="117" r="5" fill="#BDF1C4" stroke="#6B3327" stroke-width="2"/>
    <path d="M79 123v12" stroke="#6B3327" stroke-width="4" stroke-linecap="round"/>
  </g>

  <g filter="url(#softShadow)">
    <path d="M58 132c-6 0-8-9-1-11-1-8 11-11 15-4h16c4-7 16-4 15 4 7 2 5 11-1 11 2 7-7 12-13 6H71c-6 6-15 1-13-6Z" fill="#FFD46E" stroke="#7B3F2A" stroke-width="3" stroke-linejoin="round"/>
    <text x="80" y="134" text-anchor="middle" font-family="Arial, Helvetica, sans-serif" font-size="14" font-weight="900" fill="#7B3F2A" stroke="#FFF5C4" stroke-width="1.6" paint-order="stroke">BULLEY</text>
  </g>
</svg>
