<svg xmlns="http://www.w3.org/2000/svg" viewBox="0 0 160 160" role="img" aria-label="萨摩耶头像">
  <rect width="160" height="160" rx="36" fill="#DDF7FF"/>
  <circle cx="80" cy="82" r="52" fill="#FFFFFF"/>
  <path d="M45 58 35 27l33 22Z" fill="#F2F7FB"/>
  <path d="M115 58 125 27 92 49Z" fill="#F2F7FB"/>
  <path d="M52 87c9 34 47 34 56 0-7 12-49 12-56 0Z" fill="#F7C7D9"/>
  <circle cx="62" cy="75" r="6" fill="#1F2937"/>
  <circle cx="98" cy="75" r="6" fill="#1F2937"/>
  <path d="M74 89c3-5 9-5 12 0-2 5-10 5-12 0Z" fill="#1F2937"/>
  <path d="M66 102c8 11 20 11 28 0" stroke="#1F2937" stroke-width="5" stroke-linecap="round" fill="none"/>
</svg>
