<svg xmlns="http://www.w3.org/2000/svg" viewBox="0 0 96 96" role="img" aria-label="Poisoned dog fang">
  <defs>
    <linearGradient id="fang" x1="25" y1="10" x2="68" y2="88" gradientUnits="userSpaceOnUse">
      <stop offset="0" stop-color="#fff7dc"/>
      <stop offset=".48" stop-color="#f2d28b"/>
      <stop offset="1" stop-color="#8c5f29"/>
    </linearGradient>
    <linearGradient id="poison" x1="20" y1="32" x2="70" y2="78" gradientUnits="userSpaceOnUse">
      <stop offset="0" stop-color="#b8ff5a"/>
      <stop offset="1" stop-color="#16a34a"/>
    </linearGradient>
  </defs>
  <path d="M20 15c15 5 32 5 52 0 0 25-4 46-13 63-4 8-10 9-13 0-5-15-12-25-26-34 4-9 4-18 0-29Z" fill="url(#fang)" stroke="#4b371f" stroke-width="4" stroke-linejoin="round"/>
  <path d="M28 31c7 3 17 4 31 1-1 12-4 24-9 36-5-11-12-19-23-26 2-4 2-8 1-11Z" fill="url(#poison)" opacity=".88"/>
  <path d="M31 24c9 3 21 3 34 0" fill="none" stroke="#fff7dc" stroke-width="5" stroke-linecap="round" opacity=".8"/>
  <circle cx="61" cy="48" r="5" fill="#dcfce7" stroke="#166534" stroke-width="3"/>
  <circle cx="37" cy="56" r="4" fill="#dcfce7" stroke="#166534" stroke-width="3"/>
  <path d="M58 63c9 5 14 9 16 16" fill="none" stroke="#16a34a" stroke-width="5" stroke-linecap="round"/>
  <path d="M67 69c-3 1-6 3-8 7" fill="none" stroke="#86efac" stroke-width="3" stroke-linecap="round"/>
</svg>
