<svg xmlns="http://www.w3.org/2000/svg" viewBox="0 0 96 96">
  <rect width="96" height="96" rx="24" fill="#DCFCE7"/>
  <path d="M34 25h28v18c0 9-6 16-14 16s-14-7-14-16z" fill="#BBF7D0" stroke="#166534" stroke-width="5" stroke-linejoin="round"/>
  <path d="M48 58v15M34 73h28" stroke="#166534" stroke-width="5" stroke-linecap="round"/>
  <path d="M28 39c-9 3-12 17-2 23 8 5 15-2 22-2s14 7 22 2c10-6 7-20-2-23" fill="none" stroke="#22C55E" stroke-width="5" stroke-linecap="round"/>
  <path d="M45 31c0-8 7-10 7-17 7 6 11 12 11 19 0 8-6 14-15 14-7 0-12-5-12-11 0-5 3-9 9-13z" fill="#DC2626" stroke="#7F1D1D" stroke-width="4" stroke-linejoin="round"/>
</svg>
