<svg xmlns="http://www.w3.org/2000/svg" viewBox="0 0 96 96">
  <rect width="96" height="96" rx="24" fill="#FFEDD5"/>
  <path d="M45 29c12 9 18 22 17 38-14 5-28 2-40-8 4-15 11-25 23-30Z" fill="#FB923C" stroke="#9A3412" stroke-width="5" stroke-linejoin="round"/>
  <path d="M45 29c-3-10 2-17 12-20 1 9-3 16-12 20Z" fill="#22C55E" stroke="#166534" stroke-width="4" stroke-linejoin="round"/>
  <path d="M46 29c4-9 13-11 23-6-5 8-13 10-23 6Z" fill="#16A34A" stroke="#166534" stroke-width="4" stroke-linejoin="round"/>
  <path d="M34 50h18M30 61h20" stroke="#FED7AA" stroke-width="5" stroke-linecap="round"/>
  <path d="m69 58 5 5 5-5M74 47v16" stroke="#7C2D12" stroke-width="5" stroke-linecap="round" stroke-linejoin="round"/>
</svg>
